<svg version="1.1" preserveAspectRatio="none" xmlns="http://www.w3.org/2000/svg" width="500" height="500" viewBox="0 0 500 500"><rect width="100%" height="100%" fill="#222222" fill-opacity="1"/><svg viewBox="-18.4373 96.56 511.4756 158" width="333" height="102.86707713916363" x="83.5px" y="198.5665px" xmlns="http://www.w3.org/2000/svg" xmlns:xlink="http://www.w3.org/1999/xlink" preserveAspectRatio="none"><defs></defs><style>.a7KDWqqaqfillColor {fill:#ebebeb;fill-opacity:0;}.aZzOTVRhffillColor {fill:#ebebeb;fill-opacity:0;}.companyName {fill:#F3F3F3;fill-opacity:1;}.icon3-str {stroke:#A6A6A6;stroke-opacity:1;}.shapeStroke-str {stroke:#F3F3F3;stroke-opacity:1;}</style><g opacity="1" transform="rotate(0 1.5627 116.56)">
<svg width="491.4756" height="138" x="1.5627" y="116.56" version="1.1" preserveAspectRatio="none" viewBox="0 0 491.4756 138">
  <defs><rect x="1.035" y="1.035" width="489.4056" height="135.93" rx="0%" ry="0%" id="id-ZzOTVRhf1685395373462"></rect></defs><use class="aZzOTVRhffillColor shapeStroke-str" style="stroke-width:2.07;" xlink:href="#id-ZzOTVRhf1685395373462"></use>
</svg>
</g><g opacity="1" transform="rotate(0 -18.4373 96.56)">
<svg width="491.4756" height="138" x="-18.4373" y="96.56" version="1.1" preserveAspectRatio="none" viewBox="0 0 491.4756 138">
  <defs><rect x="1.035" y="1.035" width="489.4056" height="135.93" rx="0px" ry="0px" id="id-7KDWqqaq1685395373463"></rect></defs><use class="a7KDWqqaqfillColor shapeStroke-str" style="stroke-width:2.07;" xlink:href="#id-7KDWqqaq1685395373463"></use>
</svg>
</g><g opacity="1" transform="rotate(0 41.5627 156.56)">
<svg width="391.4756" height="38" x="41.5627" y="156.56" version="1.1" preserveAspectRatio="none" viewBox="2 -28.48 298.28 28.96">
  <g transform="matrix(1 0 0 1 0 0)" class="companyName"><path id="id-D6z1nYkh16" d="M29.56-4.08L28.36-5.16Q24.28-1.32 18.68-1.32L18.68-1.32Q15.56-1.32 13.16-2.40Q10.76-3.48 9.16-5.28Q7.56-7.08 6.74-9.44Q5.92-11.80 5.92-14.36L5.92-14.36Q5.92-17.08 6.78-19.34Q7.64-21.60 9.20-23.24Q10.76-24.88 12.90-25.80Q15.04-26.72 17.56-26.72L17.56-26.72Q19.28-26.72 20.70-26.32Q22.12-25.92 23.22-25.28Q24.32-24.64 25.02-23.82Q25.72-23 26-22.16L26-22.16L28.96-22.16Q28.36-23.52 27.42-24.68Q26.48-25.84 25.08-26.68Q23.68-27.52 21.80-28Q19.92-28.48 17.52-28.48L17.52-28.48Q14.04-28.48 11.18-27.48Q8.32-26.48 6.28-24.62Q4.24-22.76 3.12-20.14Q2-17.52 2-14.28L2-14.28Q2-11.48 2.90-8.82Q3.80-6.16 5.68-4.10Q7.56-2.04 10.48-0.78Q13.40 0.48 17.44 0.48L17.44 0.48Q20 0.48 22.02 0Q24.04-0.48 25.54-1.18Q27.04-1.88 28.04-2.68Q29.04-3.48 29.56-4.08L29.56-4.08Z M37.76 0L37.76-28L34.36-28L34.36 0L37.76 0Z M52.32-20.44L52.32-20.44Q55.24-20.44 56.84-19.62Q58.44-18.80 59.18-17.48Q59.92-16.16 60.04-14.44Q60.16-12.72 60.16-10.92L60.16-10.92L60.16 0L56.92 0L56.92-1.96Q55.76-0.84 53.96-0.18Q52.16 0.48 50.36 0.48L50.36 0.48Q48.64 0.48 47.32-0.12Q46-0.72 45.12-1.68Q44.24-2.64 43.80-3.84Q43.36-5.04 43.36-6.28L43.36-6.28Q43.36-7.56 43.84-8.84Q44.32-10.12 45.28-11.14Q46.24-12.16 47.64-12.80Q49.04-13.44 50.84-13.44L50.84-13.44Q52.64-13.44 54.26-12.74Q55.88-12.04 56.92-10.76L56.92-10.76L56.92-12.48Q56.92-15.76 55.94-17.36Q54.96-18.96 52.36-18.96L52.36-18.96Q51.24-18.96 50.40-18.68Q49.56-18.40 48.90-17.90Q48.24-17.40 47.68-16.66Q47.12-15.92 46.56-15L46.56-15L44.48-17.08Q45.04-17.68 45.66-18.28Q46.28-18.88 47.18-19.36Q48.08-19.84 49.32-20.14Q50.56-20.44 52.32-20.44ZM56.92-4.84L56.92-7.92Q56.72-8.40 56.34-9.04Q55.96-9.68 55.36-10.28Q54.76-10.88 53.92-11.30Q53.08-11.72 51.92-11.72L51.92-11.72Q50.76-11.72 49.80-11.26Q48.84-10.80 48.18-10.06Q47.52-9.32 47.16-8.32Q46.80-7.32 46.80-6.24L46.80-6.24Q46.80-4.96 47.26-4.02Q47.72-3.08 48.44-2.42Q49.16-1.76 50.04-1.44Q50.92-1.12 51.72-1.12L51.72-1.12Q52.48-1.12 53.26-1.40Q54.04-1.68 54.74-2.18Q55.44-2.68 56-3.36Q56.56-4.04 56.92-4.84L56.92-4.84Z M77.04-15.44L79.32-15.44Q79.32-16.52 78.76-17.44Q78.20-18.36 77.22-19.02Q76.24-19.68 74.94-20.06Q73.64-20.44 72.16-20.44L72.16-20.44Q70.76-20.44 69.54-20.08Q68.32-19.72 67.42-19Q66.52-18.28 66-17.22Q65.48-16.16 65.48-14.76L65.48-14.76Q65.48-12.84 66.36-11.72Q67.24-10.60 68.56-9.92Q69.88-9.24 71.42-8.82Q72.96-8.40 74.28-7.90Q75.60-7.40 76.48-6.64Q77.36-5.88 77.36-4.56L77.36-4.56Q77.36-4 77.18-3.40Q77-2.80 76.52-2.30Q76.04-1.80 75.20-1.46Q74.36-1.12 73.08-1.12L73.08-1.12Q71.48-1.12 70.38-1.62Q69.28-2.12 68.58-2.82Q67.88-3.52 67.58-4.24Q67.28-4.96 67.28-5.44L67.28-5.44L64.68-5.44Q64.68-4.32 65.20-3.26Q65.72-2.20 66.78-1.36Q67.84-0.52 69.38-0.02Q70.92 0.48 72.96 0.48L72.96 0.48Q76.64 0.48 78.50-1.14Q80.36-2.76 80.36-5.40L80.36-5.40Q80.36-7.32 79.46-8.48Q78.56-9.64 77.20-10.34Q75.84-11.04 74.26-11.48Q72.68-11.92 71.32-12.40Q69.96-12.88 69.06-13.56Q68.16-14.24 68.16-15.48L68.16-15.48Q68.16-16 68.36-16.58Q68.56-17.16 69.04-17.66Q69.52-18.16 70.32-18.50Q71.12-18.84 72.32-18.84L72.32-18.84Q73.52-18.84 74.40-18.50Q75.28-18.16 75.88-17.66Q76.48-17.16 76.76-16.56Q77.04-15.96 77.04-15.44L77.04-15.44Z M96.24-15.44L98.52-15.44Q98.52-16.52 97.96-17.44Q97.40-18.36 96.42-19.02Q95.44-19.68 94.14-20.06Q92.84-20.44 91.36-20.44L91.36-20.44Q89.96-20.44 88.74-20.08Q87.52-19.72 86.62-19Q85.72-18.28 85.20-17.22Q84.68-16.16 84.68-14.76L84.68-14.76Q84.68-12.84 85.56-11.72Q86.44-10.60 87.76-9.92Q89.08-9.24 90.62-8.82Q92.16-8.40 93.48-7.90Q94.80-7.40 95.68-6.64Q96.56-5.88 96.56-4.56L96.56-4.56Q96.56-4 96.38-3.40Q96.20-2.80 95.72-2.30Q95.24-1.80 94.40-1.46Q93.56-1.12 92.28-1.12L92.28-1.12Q90.68-1.12 89.58-1.62Q88.48-2.12 87.78-2.82Q87.08-3.52 86.78-4.24Q86.48-4.96 86.48-5.44L86.48-5.44L83.88-5.44Q83.88-4.32 84.40-3.26Q84.92-2.20 85.98-1.36Q87.04-0.52 88.58-0.02Q90.12 0.48 92.16 0.48L92.16 0.48Q95.84 0.48 97.70-1.14Q99.56-2.76 99.56-5.40L99.56-5.40Q99.56-7.32 98.66-8.48Q97.76-9.64 96.40-10.34Q95.04-11.04 93.46-11.48Q91.88-11.92 90.52-12.40Q89.16-12.88 88.26-13.56Q87.36-14.24 87.36-15.48L87.36-15.48Q87.36-16 87.56-16.58Q87.76-17.16 88.24-17.66Q88.72-18.16 89.52-18.50Q90.32-18.84 91.52-18.84L91.52-18.84Q92.72-18.84 93.60-18.50Q94.48-18.16 95.08-17.66Q95.68-17.16 95.96-16.56Q96.24-15.96 96.24-15.44L96.24-15.44Z M109.64-20L106.24-20L106.24 0L109.64 0L109.64-20ZM105.76-26.32L105.76-26.32Q105.76-25.44 106.40-24.80Q107.04-24.16 107.92-24.16L107.92-24.16Q108.80-24.16 109.44-24.80Q110.08-25.44 110.08-26.32L110.08-26.32Q110.08-27.20 109.44-27.84Q108.80-28.48 107.92-28.48L107.92-28.48Q107.04-28.48 106.40-27.84Q105.76-27.20 105.76-26.32Z M119.84-9.12L135.04-9.12L135.04-9.96Q135.04-12.64 134.28-14.60Q133.52-16.56 132.22-17.84Q130.92-19.12 129.20-19.76Q127.48-20.40 125.56-20.40L125.56-20.40Q123.52-20.40 121.80-19.70Q120.08-19 118.80-17.66Q117.52-16.32 116.80-14.42Q116.08-12.52 116.08-10.12L116.08-10.12Q116.08-8.12 116.70-6.22Q117.32-4.32 118.58-2.82Q119.84-1.32 121.78-0.42Q123.72 0.48 126.36 0.48L126.36 0.48Q128.92 0.48 131.08-0.42Q133.24-1.32 134.84-3L134.84-3L133.56-4.28Q132.72-3.56 131.98-2.96Q131.24-2.36 130.48-1.96Q129.72-1.56 128.90-1.34Q128.08-1.12 127.08-1.12L127.08-1.12Q125.96-1.12 124.70-1.46Q123.44-1.80 122.36-2.68Q121.28-3.56 120.56-5.12Q119.84-6.68 119.84-9.12L119.84-9.12ZM131.56-10.72L119.84-10.72Q119.84-12.32 120.18-13.82Q120.52-15.32 121.22-16.48Q121.92-17.64 123.00-18.34Q124.08-19.04 125.56-19.04L125.56-19.04Q128.40-19.04 129.98-16.82Q131.56-14.60 131.56-10.72L131.56-10.72Z M143.64-20L140.24-20L140.24 0L143.64 0L143.64-12.08Q143.64-13.72 144.02-14.86Q144.40-16 145.00-16.72Q145.60-17.44 146.32-17.76Q147.04-18.08 147.72-18.08L147.72-18.08Q148.64-18.08 149.42-17.48Q150.20-16.88 150.56-16.36L150.56-16.36L151.92-18.84Q151.56-19.32 151.06-19.64Q150.56-19.96 150.06-20.14Q149.56-20.32 149.14-20.38Q148.72-20.44 148.52-20.44L148.52-20.44Q146.84-20.44 145.72-19.52Q144.60-18.60 143.88-16.80L143.88-16.80L143.64-16.80L143.64-20Z M196.60 0L196.60-12.48L188.68-12.48L188.68-10.84L193.16-10.84L193.16-3.60Q191.36-2.44 189.48-1.88Q187.60-1.32 185.20-1.32L185.20-1.32Q182.04-1.32 179.68-2.28Q177.32-3.24 175.76-4.94Q174.20-6.64 173.42-8.98Q172.64-11.32 172.64-14.12L172.64-14.12Q172.64-16.88 173.38-19.20Q174.12-21.52 175.60-23.20Q177.08-24.88 179.22-25.80Q181.36-26.72 184.20-26.72L184.20-26.72Q186.08-26.72 187.72-26.32Q189.36-25.92 190.64-25.28Q191.92-24.64 192.74-23.82Q193.56-23 193.80-22.16L193.80-22.16L196.68-22.16Q196.32-23.04 195.46-24.14Q194.60-25.24 193.12-26.20Q191.64-27.16 189.46-27.82Q187.28-28.48 184.32-28.48L184.32-28.48Q180.92-28.48 178.06-27.52Q175.20-26.56 173.12-24.76Q171.04-22.96 169.88-20.34Q168.72-17.72 168.72-14.40L168.72-14.40Q168.72-11.56 169.62-8.90Q170.52-6.24 172.38-4.14Q174.24-2.04 177.12-0.78Q180.00 0.48 184.00 0.48L184.00 0.48Q187.00 0.48 189.32-0.18Q191.64-0.84 193.16-1.64L193.16-1.64L193.16 0L196.60 0Z M221.72-9.96L221.72-9.96Q221.72-7.88 221.00-5.98Q220.28-4.08 218.94-2.64Q217.60-1.20 215.70-0.36Q213.80 0.48 211.44 0.48L211.44 0.48Q209.04 0.48 207.10-0.38Q205.16-1.24 203.82-2.68Q202.48-4.12 201.74-6.02Q201.00-7.92 201.00-9.96L201.00-9.96Q201.00-12.04 201.74-13.94Q202.48-15.84 203.82-17.28Q205.16-18.72 207.10-19.58Q209.04-20.44 211.44-20.44L211.44-20.44Q213.80-20.44 215.70-19.58Q217.60-18.72 218.94-17.28Q220.28-15.84 221.00-13.94Q221.72-12.04 221.72-9.96ZM217.92-9.96L217.92-9.96Q217.92-12.76 217.32-14.50Q216.72-16.24 215.76-17.20Q214.80-18.16 213.64-18.50Q212.48-18.84 211.40-18.84L211.40-18.84Q210.32-18.84 209.16-18.50Q208.00-18.16 207.02-17.20Q206.04-16.24 205.42-14.50Q204.80-12.76 204.80-9.96L204.80-9.96Q204.80-7.20 205.42-5.46Q206.04-3.72 207.02-2.76Q208.00-1.80 209.16-1.46Q210.32-1.12 211.40-1.12L211.40-1.12Q212.48-1.12 213.64-1.46Q214.80-1.80 215.76-2.76Q216.72-3.72 217.32-5.46Q217.92-7.20 217.92-9.96Z M230.32-20L226.92-20L226.92 0L230.32 0L230.32-12.08Q230.32-13.72 230.70-14.86Q231.08-16 231.68-16.72Q232.28-17.44 233.00-17.76Q233.72-18.08 234.40-18.08L234.40-18.08Q235.32-18.08 236.10-17.48Q236.88-16.88 237.24-16.36L237.24-16.36L238.60-18.84Q238.24-19.32 237.74-19.64Q237.24-19.96 236.74-20.14Q236.24-20.32 235.82-20.38Q235.40-20.44 235.20-20.44L235.20-20.44Q233.52-20.44 232.40-19.52Q231.28-18.60 230.56-16.80L230.56-16.80L230.32-16.80L230.32-20Z M244.76-9.12L259.96-9.12L259.96-9.96Q259.96-12.64 259.20-14.60Q258.44-16.56 257.14-17.84Q255.84-19.12 254.12-19.76Q252.40-20.40 250.48-20.40L250.48-20.40Q248.44-20.40 246.72-19.70Q245.00-19 243.72-17.66Q242.44-16.32 241.72-14.42Q241.00-12.52 241.00-10.12L241.00-10.12Q241.00-8.12 241.62-6.22Q242.24-4.32 243.50-2.82Q244.76-1.32 246.70-0.42Q248.64 0.48 251.28 0.48L251.28 0.48Q253.84 0.48 256-0.42Q258.16-1.32 259.76-3L259.76-3L258.48-4.28Q257.64-3.56 256.90-2.96Q256.16-2.36 255.40-1.96Q254.64-1.56 253.82-1.34Q253.00-1.12 252.00-1.12L252.00-1.12Q250.88-1.12 249.62-1.46Q248.36-1.80 247.28-2.68Q246.20-3.56 245.48-5.12Q244.76-6.68 244.76-9.12L244.76-9.12ZM256.48-10.72L244.76-10.72Q244.76-12.32 245.10-13.82Q245.44-15.32 246.14-16.48Q246.84-17.64 247.92-18.34Q249.00-19.04 250.48-19.04L250.48-19.04Q253.32-19.04 254.90-16.82Q256.48-14.60 256.48-10.72L256.48-10.72Z M266.64-18.40L263.16-18.40L263.16-20L266.64-20L266.64-26.16L270.04-26.16L270.04-20L274.88-20L274.88-18.40L270.04-18.40L270.04-5.12Q270.04-4.64 270.08-4.02Q270.12-3.40 270.32-2.86Q270.52-2.32 270.94-1.96Q271.36-1.60 272.12-1.60L272.12-1.60Q273.08-1.60 273.72-2.32Q274.36-3.04 274.76-3.88L274.76-3.88L276.64-1.96Q274.68 0 272.20 0L272.20 0Q271.16 0 270.16-0.36Q269.16-0.72 268.38-1.46Q267.60-2.20 267.12-3.36Q266.64-4.52 266.64-6.08L266.64-6.08L266.64-18.40Z M281.64-18.40L278.16-18.40L278.16-20L281.64-20L281.64-26.16L285.04-26.16L285.04-20L289.88-20L289.88-18.40L285.04-18.40L285.04-5.12Q285.04-4.64 285.08-4.02Q285.12-3.40 285.32-2.86Q285.52-2.32 285.94-1.96Q286.36-1.60 287.12-1.60L287.12-1.60Q288.08-1.60 288.72-2.32Q289.36-3.04 289.76-3.88L289.76-3.88L291.64-1.96Q289.68 0 287.20 0L287.20 0Q286.16 0 285.16-0.36Q284.16-0.72 283.38-1.46Q282.60-2.20 282.12-3.36Q281.64-4.52 281.64-6.08L281.64-6.08L281.64-18.40Z M299.84-20L296.44-20L296.44 0L299.84 0L299.84-20ZM295.96-26.32L295.96-26.32Q295.96-25.44 296.60-24.80Q297.24-24.16 298.12-24.16L298.12-24.16Q299.00-24.16 299.64-24.80Q300.28-25.44 300.28-26.32L300.28-26.32Q300.28-27.20 299.64-27.84Q299.00-28.48 298.12-28.48L298.12-28.48Q297.24-28.48 296.60-27.84Q295.96-27.20 295.96-26.32Z"/></g>
</svg>
</g></svg></svg>